<svg width="22" height="22" viewBox="0 0 22 22" fill="none" xmlns="http://www.w3.org/2000/svg">
<path d="M18.8965 4.69949C18.8965 3.48297 17.5331 2.76413 16.5291 3.45187L7.45885 9.66749C7.25699 9.80585 7.09173 9.99115 6.97727 10.2075C6.86281 10.4238 6.80257 10.6646 6.80172 10.9094C6.80087 11.1541 6.85944 11.3954 6.97239 11.6125C7.08535 11.8296 7.24932 12.016 7.45021 12.1558L16.5213 18.4647C17.5227 19.162 18.8965 18.4431 18.8965 17.2232V4.69949ZM17.2627 4.5215C17.2951 4.49959 17.3328 4.48689 17.3719 4.48477C17.411 4.48265 17.4499 4.49119 17.4845 4.50946C17.5191 4.52774 17.5481 4.55507 17.5684 4.58854C17.5886 4.62201 17.5994 4.66036 17.5996 4.69949V17.2232C17.5996 17.3977 17.4044 17.4996 17.2609 17.4003L8.19066 11.0922C8.16184 11.0723 8.1383 11.0457 8.12206 11.0146C8.10583 10.9836 8.09739 10.949 8.09748 10.914C8.09756 10.879 8.10617 10.8445 8.12255 10.8135C8.13894 10.7826 8.16261 10.756 8.19152 10.7363L17.2627 4.5215ZM3.34448 3.83289C3.34448 3.66103 3.41276 3.49621 3.53428 3.37469C3.6558 3.25317 3.82062 3.18489 3.99248 3.18489C4.16434 3.18489 4.32917 3.25317 4.45069 3.37469C4.57221 3.49621 4.64048 3.66103 4.64048 3.83289V18.0889C4.64048 18.2608 4.57221 18.4256 4.45069 18.5471C4.32917 18.6686 4.16434 18.7369 3.99248 18.7369C3.82062 18.7369 3.6558 18.6686 3.53428 18.5471C3.41276 18.4256 3.34448 18.2608 3.34448 18.0889V3.83289Z" fill="#fff"/>
</svg>
