<svg width="22" height="22" viewBox="0 0 22 22" fill="none" xmlns="http://www.w3.org/2000/svg">
<path d="M3.10352 4.69949C3.10352 3.48297 4.46691 2.76413 5.47088 3.45187L14.5411 9.66749C14.743 9.80585 14.9083 9.99115 15.0227 10.2075C15.1372 10.4238 15.1974 10.6646 15.1983 10.9094C15.1991 11.1541 15.1406 11.3954 15.0276 11.6125C14.9147 11.8296 14.7507 12.016 14.5498 12.1558L5.47865 18.4647C4.47728 19.162 3.10352 18.4431 3.10352 17.2232V4.69949ZM4.73734 4.5215C4.70492 4.49959 4.66716 4.48689 4.62808 4.48477C4.58901 4.48265 4.55009 4.49119 4.51549 4.50946C4.48089 4.52774 4.45191 4.55507 4.43163 4.58854C4.41136 4.62201 4.40056 4.66036 4.40038 4.69949V17.2232C4.40038 17.3977 4.59564 17.4996 4.73907 17.4003L13.8093 11.0922C13.8382 11.0723 13.8617 11.0457 13.8779 11.0146C13.8942 10.9836 13.9026 10.949 13.9025 10.914C13.9024 10.879 13.8938 10.8445 13.8774 10.8135C13.8611 10.7826 13.8374 10.756 13.8085 10.7363L4.73734 4.5215ZM18.6555 3.83289C18.6555 3.66103 18.5872 3.49621 18.4657 3.37469C18.3442 3.25317 18.1794 3.18489 18.0075 3.18489C17.8357 3.18489 17.6708 3.25317 17.5493 3.37469C17.4278 3.49621 17.3595 3.66103 17.3595 3.83289V18.0889C17.3595 18.2608 17.4278 18.4256 17.5493 18.5471C17.6708 18.6686 17.8357 18.7369 18.0075 18.7369C18.1794 18.7369 18.3442 18.6686 18.4657 18.5471C18.5872 18.4256 18.6555 18.2608 18.6555 18.0889V3.83289Z" fill="#fff"/>
</svg>
