<svg width="142" height="96" viewBox="0 0 142 96" fill="none" xmlns="http://www.w3.org/2000/svg">
<g clip-path="url(#clip0_3406_11006)">
<path fill-rule="evenodd" clip-rule="evenodd" d="M47.9739 62.2812C47.1833 62.7012 46.5904 62.9112 45.7998 63.3312C46.1951 64.1712 46.5904 64.8012 46.9857 65.6412C47.7763 65.2212 48.5669 64.8012 49.1598 64.3812C48.7645 63.7512 48.3692 62.9112 47.9739 62.2812Z" fill="white"/>
<path fill-rule="evenodd" clip-rule="evenodd" d="M6.4323 40.5887L0.782362 36.1879C0.782362 36.1879 6.08988 27.894 15.5064 28.7403C15.5064 28.7403 23.5533 29.0788 26.1215 35.5108C26.1215 35.5108 28.8608 44.1433 22.5261 49.7289C22.5261 49.7289 12.2534 58.5306 8.31561 60.731L13.1095 58.6999H27.3199V65.6397H0.439941V59.0384L15.3352 47.19C18.417 44.6511 20.814 39.5732 17.0473 36.5264C16.0201 35.6801 14.8216 35.3416 13.2807 35.6801C10.3701 36.1879 7.80198 38.8961 6.4323 40.5887Z" fill="white"/>
<path fill-rule="evenodd" clip-rule="evenodd" d="M76.2187 35.2533V28.6797H100.552V34.5791L91.4273 43.5125C91.4273 43.5125 99.0316 44.3553 100.89 51.4345C102.918 59.5252 95.8209 66.2674 87.3717 65.5931C87.3717 65.5931 80.1053 65.9302 74.3599 59.1881L79.4294 54.3C79.4294 54.3 83.147 59.1881 88.5545 58.5138C88.5545 58.5138 93.2861 58.5138 93.4551 54.3C93.7931 48.9062 87.2027 48.5691 83.147 49.0748L81.9642 44.1867L93.6241 32.5564L89.0615 35.2533H76.2187Z" fill="white"/>
<path fill-rule="evenodd" clip-rule="evenodd" d="M122.24 28.6797C132.84 28.6797 141.56 36.9297 141.56 47.1597C141.56 57.3897 132.84 65.6397 122.24 65.6397C111.64 65.6397 102.92 57.3897 102.92 47.1597C103.091 36.9297 111.64 28.6797 122.24 28.6797ZM122.24 35.7747C128.395 35.7747 133.353 40.8897 133.353 47.1597C133.353 53.4297 128.395 58.5447 122.24 58.5447C116.085 58.5447 111.127 53.4297 111.127 47.1597C111.127 40.8897 116.256 35.7747 122.24 35.7747Z" fill="white"/>
<path fill-rule="evenodd" clip-rule="evenodd" d="M52.5198 32.0397C53.1498 31.4467 53.5698 31.0515 54.1998 30.4585C53.5698 29.8656 53.1498 29.2726 52.5198 28.6797C51.8898 29.2726 51.2598 29.8656 50.8398 30.4585C51.2598 30.8538 51.8898 31.4467 52.5198 32.0397Z" fill="white"/>
<path fill-rule="evenodd" clip-rule="evenodd" d="M52.5198 25.3209C53.1308 24.7609 53.5889 24.3409 54.1998 23.7809C53.5889 23.2209 53.1308 22.5209 52.5198 21.9609C51.9089 22.5209 51.298 23.0809 50.8398 23.7809C51.4508 24.3409 51.9089 24.7609 52.5198 25.3209Z" fill="white"/>
<path fill-rule="evenodd" clip-rule="evenodd" d="M53.9348 28.6803C54.6421 28.1763 55.1727 27.8403 55.88 27.3363C55.3495 26.6643 54.9958 25.9923 54.4653 25.3203C53.7579 25.8243 53.0505 26.3283 52.52 26.8323C52.8737 27.5043 53.4042 28.1763 53.9348 28.6803Z" fill="white"/>
<path fill-rule="evenodd" clip-rule="evenodd" d="M58.0401 35.4027C57.9201 34.9827 57.6801 34.5627 57.5601 34.1427C57.9201 34.0027 58.4001 33.8627 58.7601 33.7227C58.8801 34.1427 59.1201 34.5627 59.2401 35.1227C58.8801 35.1227 58.4001 35.2627 58.0401 35.4027Z" fill="white"/>
<path fill-rule="evenodd" clip-rule="evenodd" d="M56.5799 37.0823C56.4399 36.7769 56.1599 36.3187 55.8799 36.0133C56.2999 35.8605 56.5799 35.5551 56.9999 35.4023C57.2799 35.8605 57.4199 36.166 57.5599 36.6242C57.2799 36.7769 56.8599 36.9296 56.5799 37.0823Z" fill="white"/>
<path fill-rule="evenodd" clip-rule="evenodd" d="M57.0658 33.7194C56.6705 33.0894 56.2752 32.2494 55.8799 31.6194C56.6705 31.1994 57.2634 30.7794 58.054 30.3594C58.4493 31.1994 58.8446 32.0394 59.2399 32.6694C58.4493 33.0894 57.8564 33.5094 57.0658 33.7194Z" fill="white"/>
<path fill-rule="evenodd" clip-rule="evenodd" d="M53.99 33.723C53.57 33.363 52.94 33.123 52.52 32.763C53.15 32.523 53.78 32.283 54.41 32.043C54.83 32.403 55.25 32.763 55.88 33.123C55.25 33.363 54.62 33.603 53.99 33.723Z" fill="white"/>
<path fill-rule="evenodd" clip-rule="evenodd" d="M49.4252 30.36C49.9558 29.8295 50.3095 29.1221 50.84 28.5916C50.1326 28.0611 49.6021 27.5305 48.8947 27C48.3642 27.7074 48.0105 28.4147 47.48 29.1221C48.1873 29.4758 48.8947 30.0063 49.4252 30.36Z" fill="white"/>
<path fill-rule="evenodd" clip-rule="evenodd" d="M52.5198 63.9609C53.1498 64.5539 53.5698 64.9492 54.1998 65.5421C53.5698 66.1351 53.1498 66.728 52.5198 67.3209C51.8898 66.728 51.2598 66.1351 50.8398 65.5421C51.2598 64.9492 51.8898 64.3562 52.5198 63.9609Z" fill="white"/>
<path fill-rule="evenodd" clip-rule="evenodd" d="M52.5198 69C53.1308 69.56 53.5889 69.98 54.1998 70.54C53.5889 71.1 53.1308 71.8 52.5198 72.36C51.9089 71.8 51.298 71.24 50.8398 70.54C51.4508 69.98 51.9089 69.42 52.5198 69Z" fill="white"/>
<path fill-rule="evenodd" clip-rule="evenodd" d="M53.9348 65.6406C54.6421 66.1446 55.1727 66.4806 55.88 66.9846C55.3495 67.6566 54.9958 68.3286 54.4653 69.0006C53.7579 68.4966 53.0505 67.9926 52.52 67.4886C52.8737 66.8166 53.4042 66.3126 53.9348 65.6406Z" fill="white"/>
<path fill-rule="evenodd" clip-rule="evenodd" d="M49.4252 65.6406C49.9558 66.1712 50.3095 66.8785 50.84 67.409C50.1326 67.9396 49.6021 68.4701 48.8947 69.0006C48.3642 68.2933 48.0105 67.5859 47.48 66.8785C48.1873 66.5248 48.8947 66.1712 49.4252 65.6406Z" fill="white"/>
<path fill-rule="evenodd" clip-rule="evenodd" d="M61.2799 33.723C61.7599 33.5937 62.1199 33.5937 62.5999 33.5937C62.5999 33.0768 62.4799 32.5599 62.3599 32.043C61.8799 32.1722 61.3999 32.1722 60.9199 32.3014C61.1599 32.8184 61.1599 33.3353 61.2799 33.723Z" fill="white"/>
<path fill-rule="evenodd" clip-rule="evenodd" d="M64.8103 30.36C65.6945 30.1832 66.5787 30.0063 67.6398 30.0063C67.6398 28.9453 67.4629 28.0611 67.2861 27C66.225 27.1768 65.3408 27.3537 64.2798 27.7074C64.4566 28.4147 64.6335 29.4758 64.8103 30.36Z" fill="white"/>
<path fill-rule="evenodd" clip-rule="evenodd" d="M64.7278 33.723H67.6398V32.043C66.5198 32.043 65.3998 32.043 64.2798 32.163C64.5038 32.643 64.7278 33.123 64.7278 33.723Z" fill="white"/>
<path fill-rule="evenodd" clip-rule="evenodd" d="M64.2798 38.0903C64.2798 37.1943 64.409 36.2983 64.409 35.4023C64.9259 35.4023 65.4429 35.6263 65.9598 35.8503C65.8306 36.7463 65.8306 37.6423 65.7013 38.7623C65.3136 38.5383 64.7967 38.3143 64.2798 38.0903Z" fill="white"/>
<path fill-rule="evenodd" clip-rule="evenodd" d="M61.0726 36.8023C61.0726 36.3823 60.9199 35.8223 60.9199 35.4023C61.5308 35.4023 61.989 35.4023 62.5999 35.5423V37.0823C61.989 36.8023 61.5308 36.8023 61.0726 36.8023Z" fill="white"/>
<path fill-rule="evenodd" clip-rule="evenodd" d="M59.6979 38.4879C59.5452 38.0193 59.3925 37.7069 59.2397 37.2382C59.6979 37.082 60.1561 37.082 60.6143 37.082C60.767 37.5507 60.767 38.0193 60.9197 38.4879C60.6143 38.3317 60.1561 38.3317 59.6979 38.4879Z" fill="white"/>
<path fill-rule="evenodd" clip-rule="evenodd" d="M60.0303 32.0397C60.8209 31.842 61.6115 31.6444 62.5997 31.4467C62.4021 30.4585 62.2045 29.6679 61.8092 28.6797C61.0186 29.075 60.0303 29.2726 59.2397 29.6679C59.4374 30.2609 59.8327 31.0515 60.0303 32.0397Z" fill="white"/>
<path fill-rule="evenodd" clip-rule="evenodd" d="M42.1998 60.6016C42.3198 61.1185 42.3198 61.5062 42.4398 62.0231C41.9598 62.1523 41.4798 62.2816 40.9998 62.2816C40.8798 61.7646 40.8798 61.2477 40.7598 60.7308C41.3598 60.7308 41.7198 60.7308 42.1998 60.6016Z" fill="white"/>
<path fill-rule="evenodd" clip-rule="evenodd" d="M42.287 57.5222C42.287 57.9422 42.4398 58.5022 42.4398 58.9222C41.8289 58.9222 41.3707 58.9222 40.7598 58.7822V57.2422C41.2179 57.3822 41.8289 57.3822 42.287 57.5222Z" fill="white"/>
<path fill-rule="evenodd" clip-rule="evenodd" d="M40.2294 63.9609C40.4062 64.8451 40.5831 65.7294 40.7599 66.6136C39.6988 66.9673 38.8146 67.1441 37.7536 67.3209C37.5767 66.2599 37.5767 65.3757 37.3999 64.3146C38.2841 64.3146 39.3452 64.1378 40.2294 63.9609Z" fill="white"/>
<path fill-rule="evenodd" clip-rule="evenodd" d="M44.8117 63.9609C45.0094 64.7076 45.4046 65.4543 45.7999 66.3876C45.0094 66.7609 44.0211 66.9476 43.2305 67.3209C43.0329 66.3876 42.6376 65.6409 42.4399 64.7076C43.2305 64.5209 44.0211 64.3343 44.8117 63.9609Z" fill="white"/>
<path fill-rule="evenodd" clip-rule="evenodd" d="M50.9522 60.6016C50.2802 60.8416 49.6082 60.9616 49.1602 61.2016C49.6082 61.5616 50.0562 61.9216 50.5042 62.2816C51.1762 62.0416 51.8482 61.8016 52.5202 61.5616C52.0722 61.2016 51.4002 60.8416 50.9522 60.6016Z" fill="white"/>
<path fill-rule="evenodd" clip-rule="evenodd" d="M48.5138 58.9219C48.1261 59.0746 47.8677 59.2273 47.48 59.3801C47.6092 59.8382 47.8677 60.1437 48.1261 60.6019C48.5138 60.4491 48.9015 60.1437 49.16 59.991C48.9015 59.5328 48.7723 59.2273 48.5138 58.9219Z" fill="white"/>
<path fill-rule="evenodd" clip-rule="evenodd" d="M45.2401 58.9219C44.9041 59.0619 44.4561 59.2019 44.1201 59.2019C44.2321 59.6219 44.4561 60.1819 44.5681 60.6019C45.0161 60.4619 45.3521 60.3219 45.8001 60.0419C45.5761 59.7619 45.4641 59.3419 45.2401 58.9219Z" fill="white"/>
<path fill-rule="evenodd" clip-rule="evenodd" d="M45.3419 57.2422H44.1201C44.1201 57.7108 44.2728 58.1794 44.4256 58.6481C44.8838 58.6481 45.3419 58.4919 45.8001 58.4919C45.6474 58.0232 45.4947 57.7108 45.3419 57.2422Z" fill="white"/>
<path fill-rule="evenodd" clip-rule="evenodd" d="M38.9679 60.6016C38.9679 61.0816 38.9679 61.6816 39.0799 62.1616C38.5199 62.2816 37.9599 62.2816 37.3999 62.2816V60.6016C37.9599 60.6016 38.4079 60.6016 38.9679 60.6016Z" fill="white"/>
<path fill-rule="evenodd" clip-rule="evenodd" d="M67.6396 42.5414C68.2696 42.9614 69.1096 43.3814 69.7396 43.8014C70.1596 42.9614 70.5796 42.3314 70.9996 41.4914C70.1596 41.0714 69.5296 40.6514 68.6896 40.4414C68.2696 41.2814 67.8496 41.9114 67.6396 42.5414Z" fill="white"/>
<path fill-rule="evenodd" clip-rule="evenodd" d="M60.9199 40.1363C61.3883 40.289 61.7006 40.289 62.1691 40.4417C62.1691 39.9835 62.3252 39.5254 62.3252 39.0672C61.8568 38.9144 61.3883 38.9144 60.9199 38.7617V40.1363Z" fill="white"/>
<path fill-rule="evenodd" clip-rule="evenodd" d="M64.2798 41.6045C64.6675 41.7337 65.0552 41.9922 65.5721 42.1214C65.7013 41.7337 65.8306 41.2168 65.9598 40.8291C65.4429 40.6999 65.0552 40.5706 64.5382 40.4414C64.409 40.8291 64.409 41.2168 64.2798 41.6045Z" fill="white"/>
<path fill-rule="evenodd" clip-rule="evenodd" d="M72.6802 41.0526C73.4106 41.3581 73.995 41.8163 74.7254 42.1217C75.1637 41.3581 75.6019 40.5944 76.0402 39.8308C75.3097 39.5254 74.5793 39.0672 73.7028 38.7617C73.4106 39.5254 72.9723 40.289 72.6802 41.0526Z" fill="white"/>
<path fill-rule="evenodd" clip-rule="evenodd" d="M69.3198 44.0664C69.9918 44.5969 70.4958 44.9506 71.1678 45.4811C71.6718 44.7737 72.1758 44.2432 72.6798 43.5358C72.0078 43.0053 71.3358 42.6516 70.6638 42.1211C70.1598 42.8285 69.6558 43.5358 69.3198 44.0664Z" fill="white"/>
<path fill-rule="evenodd" clip-rule="evenodd" d="M67.6396 39.5087C68.4302 39.6954 69.2208 40.0687 70.0114 40.442C70.4067 39.6954 70.802 38.762 70.9996 37.8287C70.2091 37.642 69.2208 37.2687 68.2326 37.082C68.0349 38.0154 67.8373 38.762 67.6396 39.5087Z" fill="white"/>
<path fill-rule="evenodd" clip-rule="evenodd" d="M37.4 51.7795C36.98 52.4095 36.77 53.2495 36.35 53.8795C35.51 53.4595 34.88 53.2495 34.04 52.8295C34.46 51.9895 34.88 51.3595 35.3 50.5195C35.93 51.1495 36.77 51.5695 37.4 51.7795Z" fill="white"/>
<path fill-rule="evenodd" clip-rule="evenodd" d="M40.7601 46.3205C40.4546 46.5605 40.1492 46.8005 39.9964 47.1605C39.691 46.9205 39.3855 46.6805 39.0801 46.3205C39.3855 46.0805 39.691 45.7205 39.9964 45.4805C40.1492 45.7205 40.4546 46.0805 40.7601 46.3205Z" fill="white"/>
<path fill-rule="evenodd" clip-rule="evenodd" d="M37.3997 50.3098C37.1413 50.9398 36.8828 51.5698 36.7536 52.1998C36.3659 51.7798 35.9782 51.3598 35.7197 50.7298C35.9782 50.0998 36.2366 49.4698 36.6243 48.8398C36.7536 49.4698 37.012 49.8898 37.3997 50.3098Z" fill="white"/>
<path fill-rule="evenodd" clip-rule="evenodd" d="M32.36 53.421C32.0678 54.1847 31.6296 54.7956 31.3374 55.5592C30.607 55.2538 29.7304 54.9483 29 54.4901C29.4383 53.7265 29.8765 52.9629 30.3148 52.1992C31.0452 52.6574 31.6296 52.9629 32.36 53.421Z" fill="white"/>
<path fill-rule="evenodd" clip-rule="evenodd" d="M35.7199 56.4958C35.5332 57.2425 35.1599 58.1758 34.9732 58.9225C34.0399 58.7358 33.2932 58.5492 32.3599 58.1758C32.7332 57.2425 32.9199 56.4958 33.2932 55.5625C34.2265 55.9358 34.9732 56.1225 35.7199 56.4958Z" fill="white"/>
<path fill-rule="evenodd" clip-rule="evenodd" d="M42.165 54.1883C41.6966 54.0355 41.3843 54.0355 40.9159 53.8828C40.9159 54.341 40.7598 54.7992 40.7598 55.2574C41.2282 55.4101 41.6966 55.4101 42.165 55.5628C42.0089 55.1046 42.0089 54.6465 42.165 54.1883Z" fill="white"/>
<path fill-rule="evenodd" clip-rule="evenodd" d="M39.0799 55.9225C38.563 55.8025 38.0461 55.6825 37.6584 55.5625C37.5291 56.0425 37.5291 56.5225 37.3999 57.0025C37.9168 57.1225 38.4337 57.1225 39.0799 57.2425C38.9507 56.7625 39.0799 56.2825 39.0799 55.9225Z" fill="white"/>
<path fill-rule="evenodd" clip-rule="evenodd" d="M39.0799 52.7161C38.6922 52.5869 38.1753 52.3284 37.7876 52.1992C37.6584 52.5869 37.5291 53.1038 37.3999 53.4915C37.9168 53.6208 38.3045 53.75 38.8214 53.8792C38.8214 53.6208 38.9507 53.1038 39.0799 52.7161Z" fill="white"/>
<path fill-rule="evenodd" clip-rule="evenodd" d="M40.7601 51.1657C40.4546 50.9072 39.9964 50.778 39.691 50.5195C39.5383 50.9072 39.2328 51.1657 39.0801 51.5534C39.5383 51.8118 39.8437 51.9411 40.3019 52.1995C40.4546 51.9411 40.6074 51.5534 40.7601 51.1657Z" fill="white"/>
<path fill-rule="evenodd" clip-rule="evenodd" d="M34.0402 50.2546C33.6865 50.9619 33.156 51.4925 32.8023 52.1998C32.0949 51.8462 31.3875 51.3156 30.6802 50.7851C31.2107 50.0777 31.7412 49.3704 32.2718 48.8398C32.6254 49.3704 33.3328 49.7241 34.0402 50.2546Z" fill="white"/>
<path fill-rule="evenodd" clip-rule="evenodd" d="M67.6396 51.7795C68.0596 52.4095 68.2696 53.2495 68.6896 53.8795C69.5296 53.4595 70.1596 53.2495 70.9996 52.8295C70.5796 51.9895 70.1596 51.3595 69.7396 50.5195C68.8996 51.1495 68.2696 51.3595 67.6396 51.7795Z" fill="white"/>
<path fill-rule="evenodd" clip-rule="evenodd" d="M65.96 45.6908C66.2184 46.1108 66.6061 46.5308 66.8646 47.1608C67.123 46.5308 67.3815 45.9008 67.64 45.2708C67.2523 44.8508 66.9938 44.4308 66.6061 43.8008C66.4769 44.4308 66.2184 45.0608 65.96 45.6908Z" fill="white"/>
<path fill-rule="evenodd" clip-rule="evenodd" d="M64.2798 46.3205C64.5852 46.5605 64.8907 46.8005 65.0434 47.1605C65.3489 46.9205 65.6543 46.6805 65.9598 46.3205C65.6543 46.0805 65.3489 45.8405 65.0434 45.4805C64.8907 45.7205 64.5852 46.0805 64.2798 46.3205Z" fill="white"/>
<path fill-rule="evenodd" clip-rule="evenodd" d="M67.6396 47.1605C68.2326 47.7205 68.6279 48.2805 69.2208 48.8405C69.8138 48.2805 70.4067 47.7205 70.9996 47.1605C70.4067 46.6005 69.8138 46.0405 69.2208 45.4805C68.8255 46.0405 68.2326 46.6005 67.6396 47.1605Z" fill="white"/>
<path fill-rule="evenodd" clip-rule="evenodd" d="M65.96 50.3098C66.2184 50.9398 66.4769 51.5698 66.6061 52.1998C66.9938 51.7798 67.3815 51.3598 67.64 50.7298C67.3815 50.0998 67.123 49.4698 66.7353 48.8398C66.6061 49.4698 66.2184 49.8898 65.96 50.3098Z" fill="white"/>
<path fill-rule="evenodd" clip-rule="evenodd" d="M72.6802 53.421C72.9723 54.1847 73.4106 54.7956 73.7028 55.5592C74.4332 55.2538 75.3097 54.9483 76.0402 54.4901C75.6019 53.7265 75.1637 52.9629 74.7254 52.1992C73.995 52.6574 73.4106 53.1156 72.6802 53.421Z" fill="white"/>
<path fill-rule="evenodd" clip-rule="evenodd" d="M62.6001 43.2411C62.9124 43.3811 63.3808 43.6611 63.6931 43.8011C63.8492 43.3811 64.0054 42.9611 64.1615 42.6811C63.6931 42.5411 63.3808 42.2611 62.9124 42.1211C62.9124 42.4011 62.7562 42.8211 62.6001 43.2411Z" fill="white"/>
<path fill-rule="evenodd" clip-rule="evenodd" d="M69.3198 54.8161C69.5065 55.5628 69.8798 56.3095 70.0665 57.2428C70.9998 57.0561 71.7465 56.8695 72.6798 56.4961C72.3065 55.5628 72.1198 54.8161 71.7465 53.8828C70.8132 54.2561 70.0665 54.6295 69.3198 54.8161Z" fill="white"/>
<path fill-rule="evenodd" clip-rule="evenodd" d="M69.3198 50.2546C69.8504 50.9619 70.204 51.4925 70.5577 52.1998C71.2651 51.8462 71.9725 51.3156 72.6798 50.7851C72.1493 50.0777 71.6188 49.5472 71.0882 48.8398C70.5577 49.3704 70.0272 49.9009 69.3198 50.2546Z" fill="white"/>
<path fill-rule="evenodd" clip-rule="evenodd" d="M37.4 42.5414C36.77 42.9614 35.93 43.3814 35.3 43.8014C34.88 43.1714 34.46 42.3314 34.04 41.4914C34.88 41.0714 35.51 40.6514 36.35 40.4414C36.77 41.0714 37.19 41.7014 37.4 42.5414Z" fill="white"/>
<path fill-rule="evenodd" clip-rule="evenodd" d="M32.36 40.8999C31.6296 41.2054 31.0452 41.6635 30.3148 42.1217C29.8765 41.3581 29.4383 40.5944 29 39.8308C29.7304 39.3726 30.4609 39.0672 31.3374 38.7617C31.6296 39.5254 32.0678 40.289 32.36 40.8999Z" fill="white"/>
<path fill-rule="evenodd" clip-rule="evenodd" d="M34.0402 44.0664C33.3682 44.5969 32.8642 44.9506 32.1922 45.4811C31.6882 44.7737 31.1842 44.2432 30.6802 43.5358C31.3522 43.0053 32.0242 42.4748 32.6962 42.1211C33.2002 42.6516 33.5362 43.359 34.0402 44.0664Z" fill="white"/>
<path fill-rule="evenodd" clip-rule="evenodd" d="M37.4 47.1605C36.8071 46.6005 36.4118 46.0405 35.8189 45.4805C35.2259 46.0405 34.633 46.6005 34.04 47.1605C34.633 47.7205 35.2259 48.2805 35.8189 48.8405C36.4118 48.2805 36.8071 47.7205 37.4 47.1605Z" fill="white"/>
<path fill-rule="evenodd" clip-rule="evenodd" d="M37.3997 45.6908C37.1413 45.0608 36.8828 44.4308 36.7536 43.8008C36.3659 44.2208 35.9782 44.6408 35.7197 45.2708C35.9782 45.9008 36.2366 46.5308 36.6243 47.1608C36.8828 46.7408 37.1413 46.3208 37.3997 45.6908Z" fill="white"/>
<path fill-rule="evenodd" clip-rule="evenodd" d="M35.7199 39.5087C34.9293 39.6954 34.1387 40.0687 33.3481 40.442C32.9528 39.6954 32.5575 38.762 32.3599 37.8287C33.1505 37.642 34.1387 37.2687 35.1269 37.082C35.3246 37.8287 35.5222 38.762 35.7199 39.5087Z" fill="white"/>
<path fill-rule="evenodd" clip-rule="evenodd" d="M61.1784 60.6016C61.0492 61.1185 61.0492 61.5062 60.9199 62.0231C61.4368 62.1523 61.9538 62.2816 62.4707 62.2816C62.5999 61.7646 62.5999 61.2477 62.5999 60.7308C62.2122 60.7308 61.6953 60.7308 61.1784 60.6016Z" fill="white"/>
<path fill-rule="evenodd" clip-rule="evenodd" d="M64.2798 52.7161C64.4198 53.1038 64.4198 53.4915 64.5598 53.8792C64.9798 53.75 65.5398 53.6208 65.9598 53.4915C65.8198 53.1038 65.6798 52.5869 65.5398 52.1992C65.1198 52.3284 64.6998 52.4577 64.2798 52.7161Z" fill="white"/>
<path fill-rule="evenodd" clip-rule="evenodd" d="M62.6001 54.341V55.5628C63.0685 55.4101 63.5369 55.4101 64.0054 55.2574C64.0054 54.7992 63.8492 54.341 63.8492 53.8828C63.5369 54.1883 63.0685 54.1883 62.6001 54.341Z" fill="white"/>
<path fill-rule="evenodd" clip-rule="evenodd" d="M64.2798 56.2345C64.2798 57.1305 64.409 58.0265 64.409 58.9225C64.9259 58.6985 65.4429 58.6985 65.9598 58.4745C65.8306 57.5785 65.8306 56.6825 65.7013 55.5625C65.1844 55.7865 64.7967 56.0105 64.2798 56.2345Z" fill="white"/>
<path fill-rule="evenodd" clip-rule="evenodd" d="M61.0726 57.5222C61.0726 57.9422 61.0726 58.5022 60.9199 58.9222C61.5308 58.9222 61.989 58.9222 62.5999 58.7822V57.2422C62.1417 57.3822 61.6836 57.5222 61.0726 57.5222Z" fill="white"/>
<path fill-rule="evenodd" clip-rule="evenodd" d="M64.8103 63.9609C64.6335 64.8451 64.4566 65.7294 64.2798 66.6136C65.3408 66.7904 66.225 67.1441 67.2861 67.3209C67.4629 66.2599 67.4629 65.3757 67.6398 64.3146C66.5787 64.1378 65.6945 64.1378 64.8103 63.9609Z" fill="white"/>
<path fill-rule="evenodd" clip-rule="evenodd" d="M62.6001 51.1657C62.7528 51.5534 62.9056 51.8118 63.0583 52.1995C63.5165 52.0703 63.8219 51.8118 64.2801 51.5534C64.1274 51.1657 63.8219 50.9072 63.6692 50.5195C63.3637 50.778 62.9056 51.0365 62.6001 51.1657Z" fill="white"/>
<path fill-rule="evenodd" clip-rule="evenodd" d="M60.0303 63.9609C59.8327 64.7076 59.4374 65.4543 59.2397 66.3876C60.0303 66.7609 61.0186 66.9476 61.8092 67.3209C62.0068 66.3876 62.4021 65.6409 62.5997 64.7076C61.6115 64.3343 60.8209 64.1476 60.0303 63.9609Z" fill="white"/>
<path fill-rule="evenodd" clip-rule="evenodd" d="M53.304 60.6016C53.64 60.8416 53.976 60.9616 54.2 61.2016C53.976 61.5616 53.752 61.9216 53.528 62.2816C53.192 62.0416 52.856 61.8016 52.52 61.5616C52.856 61.2016 53.08 60.8416 53.304 60.6016Z" fill="white"/>
<path fill-rule="evenodd" clip-rule="evenodd" d="M54.7602 58.9219C55.1802 59.0746 55.4602 59.2273 55.8802 59.3801C55.7402 59.8382 55.4602 60.1437 55.3202 60.6019C54.9002 60.4491 54.4802 60.2964 54.2002 59.991C54.3402 59.6855 54.6202 59.3801 54.7602 58.9219Z" fill="white"/>
<path fill-rule="evenodd" clip-rule="evenodd" d="M57.0658 62.2812C57.8564 62.5052 58.4493 62.6172 59.2399 62.7292C58.8446 63.1772 58.4493 63.6252 58.054 63.9612C57.2634 63.7372 56.4728 63.5132 55.8799 63.2892C56.2752 62.9532 56.6705 62.6172 57.0658 62.2812Z" fill="white"/>
<path fill-rule="evenodd" clip-rule="evenodd" d="M58.1201 58.9219C58.4561 59.0619 58.9041 59.2019 59.2401 59.2019C59.1281 59.6219 59.0161 60.1819 58.7921 60.6019C58.3441 60.4619 58.0081 60.3219 57.5601 60.1819C57.7841 59.7619 58.0081 59.3419 58.1201 58.9219Z" fill="white"/>
<path fill-rule="evenodd" clip-rule="evenodd" d="M51.6152 58.9219C51.8737 59.2273 52.1322 59.5328 52.5198 59.6855C52.2614 59.991 52.0029 60.2964 51.6152 60.6019C51.3568 60.2964 51.0983 59.991 50.8398 59.6855C51.0983 59.5328 51.3568 59.2273 51.6152 58.9219Z" fill="white"/>
<path fill-rule="evenodd" clip-rule="evenodd" d="M59.6979 57.2422H60.9197C60.9197 57.7108 60.767 58.1794 60.6143 58.6481C60.1561 58.6481 59.6979 58.4919 59.2397 58.4919C59.3925 58.1794 59.5452 57.7108 59.6979 57.2422Z" fill="white"/>
<path fill-rule="evenodd" clip-rule="evenodd" d="M64.3918 60.6016C64.3918 61.0816 64.3918 61.6816 64.2798 62.1616C64.8398 62.1616 65.3998 62.2816 65.9598 62.2816C65.9598 61.6816 65.9598 61.2016 65.8478 60.6016C65.3998 60.6016 64.8398 60.6016 64.3918 60.6016Z" fill="white"/>
<path fill-rule="evenodd" clip-rule="evenodd" d="M42.1813 33.723C41.6644 33.5937 41.2767 33.5937 40.7598 33.5937C40.7598 33.0768 40.889 32.5599 40.889 32.043C41.4059 32.1722 41.9228 32.1722 42.4398 32.3014C42.4398 32.8184 42.3105 33.206 42.1813 33.723Z" fill="white"/>
<path fill-rule="evenodd" clip-rule="evenodd" d="M50.0562 33.723C49.7202 33.483 49.3842 33.363 49.1602 33.123C49.3842 32.763 49.6082 32.403 49.8322 32.043C50.1682 32.283 50.5042 32.523 50.8402 32.763C50.6162 33.003 50.2802 33.363 50.0562 33.723Z" fill="white"/>
<path fill-rule="evenodd" clip-rule="evenodd" d="M48.6 35.4027C48.18 35.2499 47.9 35.0972 47.48 34.9445C47.62 34.4863 47.9 34.1808 48.04 33.7227C48.46 33.8754 48.88 34.0281 49.16 34.3336C49.02 34.639 48.88 35.0972 48.6 35.4027Z" fill="white"/>
<path fill-rule="evenodd" clip-rule="evenodd" d="M47.9739 32.0394C47.1833 31.8154 46.5904 31.7034 45.7998 31.5914C46.1951 31.1434 46.5904 30.6954 46.9857 30.3594C47.7763 30.5834 48.5669 30.8074 49.1598 31.0314C48.5669 31.2554 48.1716 31.5914 47.9739 32.0394Z" fill="white"/>
<path fill-rule="evenodd" clip-rule="evenodd" d="M45.2401 35.4027C44.9041 35.2627 44.4561 35.1227 44.1201 35.1227C44.2321 34.7027 44.3441 34.1427 44.5681 33.7227C45.0161 33.8627 45.3521 34.0027 45.8001 34.1427C45.4641 34.5627 45.3521 34.9827 45.2401 35.4027Z" fill="white"/>
<path fill-rule="evenodd" clip-rule="evenodd" d="M40.2294 30.36C39.3452 30.1832 38.461 30.1832 37.3999 30.0063C37.3999 28.9453 37.5767 28.0611 37.7536 27C38.8146 27.1768 39.6988 27.3537 40.7599 27.7074C40.4062 28.4147 40.2294 29.2989 40.2294 30.36Z" fill="white"/>
<path fill-rule="evenodd" clip-rule="evenodd" d="M51.7445 35.4027C51.486 35.0972 51.2275 34.7917 50.8398 34.639C51.0983 34.3336 51.3568 34.0281 51.7445 33.7227C52.0029 34.0281 52.2614 34.3336 52.5198 34.639C52.3906 34.9445 52.1322 35.0972 51.7445 35.4027Z" fill="white"/>
<path fill-rule="evenodd" clip-rule="evenodd" d="M38.9679 33.723H37.5119C37.5119 33.123 37.3999 32.643 37.3999 32.043C37.9599 32.043 38.5199 32.043 39.0799 32.163C38.9679 32.763 38.9679 33.243 38.9679 33.723Z" fill="white"/>
<path fill-rule="evenodd" clip-rule="evenodd" d="M39.0799 41.6045C38.9399 41.2168 38.9399 40.8291 38.7999 40.4414C38.3799 40.5706 37.8199 40.6999 37.3999 40.8291C37.5399 41.2168 37.6799 41.7337 37.8199 42.1214C38.2399 41.8629 38.6599 41.7337 39.0799 41.6045Z" fill="white"/>
<path fill-rule="evenodd" clip-rule="evenodd" d="M42.165 39.9835V38.7617C41.6966 38.9144 41.2282 38.9144 40.7598 39.0672C40.7598 39.5254 40.9159 39.9835 40.9159 40.4417C41.3843 40.289 41.8528 40.1363 42.165 39.9835Z" fill="white"/>
<path fill-rule="evenodd" clip-rule="evenodd" d="M39.0799 38.426C39.0799 37.978 38.9507 37.53 38.9507 37.082C38.4337 37.194 37.9168 37.194 37.3999 37.306C37.5291 37.754 37.5291 38.202 37.6584 38.762C38.0461 38.65 38.563 38.538 39.0799 38.426Z" fill="white"/>
<path fill-rule="evenodd" clip-rule="evenodd" d="M42.287 36.8023C42.287 36.3823 42.287 35.8223 42.4398 35.4023C41.8289 35.4023 41.3707 35.4023 40.7598 35.5423V37.0823C41.3707 36.9423 41.8289 36.9423 42.287 36.8023Z" fill="white"/>
<path fill-rule="evenodd" clip-rule="evenodd" d="M40.7601 43.1549C40.6074 42.7672 40.4546 42.5088 40.3019 42.1211C39.8437 42.2503 39.5383 42.5088 39.0801 42.7672C39.2328 43.1549 39.5383 43.4134 39.691 43.8011C39.9964 43.5426 40.3019 43.4134 40.7601 43.1549Z" fill="white"/>
<path fill-rule="evenodd" clip-rule="evenodd" d="M45.4947 38.4879C45.6474 38.0193 45.8001 37.7069 45.8001 37.2382C45.3419 37.2382 44.8838 37.082 44.4256 37.082C44.2728 37.5507 44.2728 38.0193 44.1201 38.4879C44.5783 38.4879 45.0365 38.4879 45.4947 38.4879Z" fill="white"/>
<path fill-rule="evenodd" clip-rule="evenodd" d="M45.0094 32.0397C44.2188 31.842 43.4282 31.6444 42.4399 31.4467C42.6376 30.4585 42.8352 29.6679 43.2305 28.6797C44.0211 28.8773 45.0094 29.2726 45.7999 29.6679C45.6023 30.4585 45.207 31.2491 45.0094 32.0397Z" fill="white"/>
<path fill-rule="evenodd" clip-rule="evenodd" d="M0.439941 95.523V87.8379H1.45282V91.7698L5.16672 87.8379H6.51723L3.14096 91.0549L6.34842 95.7017H4.99791L2.4657 91.7698L1.28401 93.0209V95.7017H0.439941V95.523ZM132.959 95.523L135.828 87.8379H136.841L139.88 95.523H138.698L137.854 93.1996H134.816L133.971 95.523H132.959ZM134.984 92.4847H137.517L136.672 90.34C136.504 89.6252 136.335 89.089 136.166 88.7315C135.997 89.2677 135.997 89.8039 135.828 90.1613L134.984 92.4847ZM131.102 87.8379H132.115V95.523H131.102V87.8379ZM124.011 95.523V87.8379H126.712C127.219 87.8379 127.725 87.8379 128.063 88.0166C128.401 88.1954 128.738 88.3741 128.907 88.7315C129.076 89.089 129.245 89.4464 129.245 89.8039C129.245 90.1613 129.245 90.5188 128.907 90.6975C128.738 91.0549 128.401 91.2337 128.063 91.4124C128.569 91.5911 128.907 91.7698 129.076 92.1273C129.245 92.4847 129.413 92.8422 129.413 93.3783C129.413 93.7358 129.414 94.0932 129.245 94.4507C129.076 94.8081 128.907 94.9868 128.738 95.1656C128.569 95.3443 128.232 95.523 127.894 95.523C127.557 95.523 127.219 95.7017 126.712 95.7017H124.011V95.523ZM125.024 91.0549H126.544C127.05 91.0549 127.219 91.0549 127.388 90.8762C127.557 90.8762 127.894 90.6975 127.894 90.5188C128.063 90.34 128.063 90.1613 128.063 89.8039C128.063 89.6252 128.063 89.2677 127.894 89.089C127.725 88.9103 127.557 88.7315 127.388 88.7315C127.219 88.7315 126.881 88.5528 126.206 88.5528H124.687V91.0549H125.024ZM125.024 94.6294H126.881H127.557C127.725 94.6294 127.894 94.4507 128.063 94.4507C128.232 94.272 128.401 94.272 128.401 94.0932C128.569 93.9145 128.569 93.7358 128.569 93.3783C128.569 93.0209 128.569 92.8422 128.401 92.6634C128.232 92.4847 128.063 92.306 127.894 92.1273C127.725 92.1273 127.219 91.9486 126.881 91.9486H125.193V94.6294H125.024ZM116.415 95.523L119.285 87.8379H120.298L123.336 95.523H122.155L121.31 93.1996H118.272L117.428 95.523H116.415ZM118.441 92.4847H120.973L120.129 90.34C119.96 89.6252 119.791 89.089 119.622 88.7315C119.454 89.2677 119.454 89.8039 119.285 90.1613L118.441 92.4847ZM109.831 95.523V87.8379H113.039C113.714 87.8379 114.22 87.8379 114.558 88.0166C114.896 88.1954 115.233 88.3741 115.402 88.7315C115.571 89.089 115.74 89.4464 115.74 89.9826C115.74 90.5188 115.571 91.0549 115.233 91.4124C114.896 91.7698 114.389 91.9486 113.714 92.1273C114.051 92.306 114.22 92.306 114.22 92.4847C114.558 92.8422 114.727 93.0209 115.064 93.5571L116.415 95.7017H115.233L114.22 94.0932C113.883 93.5571 113.714 93.1996 113.545 93.0209C113.376 92.8422 113.207 92.6634 113.039 92.4847C112.87 92.306 112.701 92.306 112.532 92.306H112.026H110.844V95.7017H109.831V95.523ZM110.844 91.2337H112.87C113.376 91.2337 113.714 91.2337 113.883 91.0549C114.051 90.8762 114.389 90.8762 114.389 90.5188C114.558 90.34 114.558 90.1613 114.558 89.8039C114.558 89.4464 114.389 89.089 114.22 88.9103C114.051 88.7315 113.545 88.5528 113.039 88.5528H110.675V91.2337H110.844ZM102.235 95.523L105.104 87.8379H106.117L109.156 95.523H107.974L107.13 93.1996H104.091L103.247 95.523H102.235ZM104.26 92.4847H106.792L105.948 90.34C105.78 89.6252 105.611 89.089 105.442 88.7315C105.273 89.2677 105.273 89.8039 105.104 90.1613L104.26 92.4847ZM98.0142 87.8379H99.0271V95.523H98.0142V87.8379ZM90.4176 95.523V87.8379H92.9498C93.4562 87.8379 93.9627 87.8379 94.3003 88.0166C94.6379 88.1954 95.1444 88.3741 95.3132 88.5528C95.6508 88.9103 95.9884 89.2677 96.1572 89.8039C96.326 90.34 96.4949 90.8762 96.4949 91.5911C96.4949 92.1273 96.4949 92.6634 96.326 93.1996C96.1572 93.7358 95.9884 94.0932 95.8196 94.272C95.6508 94.6294 95.3132 94.8081 95.1443 94.9869C94.9755 95.1656 94.6379 95.3443 94.3003 95.3443C93.9627 95.3443 93.625 95.523 93.1186 95.523H90.4176ZM91.4305 94.6294H92.9498C93.4562 94.6294 93.7938 94.6294 94.1315 94.4507C94.4691 94.272 94.6379 94.272 94.8067 94.0932C94.9755 93.9145 95.1444 93.5571 95.3132 93.0209C95.482 92.6634 95.482 92.1273 95.482 91.5911C95.482 90.6975 95.3132 90.1613 95.1443 89.8039C94.9755 89.4464 94.6379 89.089 94.3003 88.9103C93.9627 88.7315 93.625 88.7315 93.1186 88.7315H91.5993V94.6294H91.4305ZM87.8854 87.8379H88.8982V92.306C88.8982 93.0209 88.8982 93.7358 88.7294 94.0932C88.5606 94.6294 88.223 94.9868 87.8854 95.1656C87.3789 95.523 86.8725 95.523 86.1972 95.523C85.522 95.523 85.0155 95.3443 84.5091 95.1656C84.0027 94.9868 83.8338 94.6294 83.4962 94.0932C83.3274 93.5571 83.1586 93.0209 83.1586 92.1273V87.6592H84.1715V92.1273C84.1715 92.8422 84.1715 93.3783 84.3403 93.5571C84.5091 93.9145 84.6779 94.0932 85.0155 94.272C85.3532 94.4507 85.6908 94.4507 86.0284 94.4507C86.7037 94.4507 87.2101 94.272 87.5477 93.9145C87.8854 93.5571 88.0542 92.8422 88.0542 91.9486V87.8379H87.8854ZM75.3932 95.523L78.263 87.8379H79.2759L82.3145 95.523H81.1328L80.2888 93.1996H77.2501L76.406 95.523H75.3932ZM77.4189 92.4847H79.9511L79.1071 90.34C78.9382 89.6252 78.7694 89.089 78.6006 88.7315C78.4318 89.2677 78.4318 89.8039 78.263 90.1613L77.4189 92.4847ZM68.9782 93.0209H69.8223C69.8223 93.3783 69.9911 93.7358 70.1599 93.9145C70.3288 94.0932 70.4976 94.4507 70.8352 94.4507C71.1728 94.6294 71.5105 94.6294 72.0169 94.6294C72.3545 94.6294 72.6921 94.6294 73.0298 94.4507C73.3674 94.272 73.5362 94.0932 73.705 93.9145C73.8738 93.7358 73.8738 93.5571 73.8738 93.1996C73.8738 93.0209 73.8738 92.6634 73.705 92.4847C73.5362 92.306 73.3674 92.1273 73.0298 91.9486C72.861 91.9486 72.3545 91.7698 71.6793 91.5911C71.004 91.4124 70.4976 91.2337 70.3288 91.0549C69.9911 90.8762 69.6535 90.6975 69.4847 90.34C69.3159 89.9826 69.1471 89.8039 69.1471 89.4464C69.1471 89.089 69.3159 88.7315 69.4847 88.3741C69.6535 88.0166 69.9911 87.8379 70.3288 87.6592C70.6664 87.4805 71.1728 87.4805 71.6793 87.4805C72.1857 87.4805 72.6921 87.6592 73.1986 87.8379C73.5362 88.0166 73.8738 88.3741 74.2115 88.7315C74.3803 89.089 74.5491 89.4464 74.5491 89.9826H73.5362C73.5362 89.4464 73.3674 89.089 73.0298 88.9103C72.6921 88.7315 72.3545 88.5528 71.6793 88.5528C71.1728 88.5528 70.6664 88.7315 70.3288 88.9103C69.9911 89.089 69.9911 89.4464 69.9911 89.8039C69.9911 90.1613 70.1599 90.34 70.3288 90.5188C70.4976 90.6975 71.004 90.8762 71.8481 91.0549C72.6921 91.2337 73.1986 91.4124 73.5362 91.5911C74.0427 91.7698 74.2115 92.1273 74.5491 92.306C74.7179 92.6634 74.8867 93.0209 74.8867 93.3783C74.8867 93.7358 74.7179 94.0932 74.5491 94.6294C74.3803 94.9868 74.0427 95.3443 73.5362 95.523C73.1986 95.7017 72.6921 95.8805 72.1857 95.8805C71.5105 95.8805 71.004 95.7017 70.4976 95.523C69.9911 95.3443 69.6535 94.9868 69.4847 94.6294C69.1471 94.0932 68.9782 93.5571 68.9782 93.0209ZM60.1999 95.523V87.8379H65.0955V88.7315H61.044V91.0549H64.4203V91.9486H61.044V95.523H60.1999ZM51.9281 91.7698C51.9281 90.5188 52.2657 89.4464 52.941 88.7315C53.6162 88.0166 54.4603 87.6592 55.4732 87.6592C56.1484 87.6592 56.8237 87.8379 57.3301 88.1954C57.8366 88.5528 58.343 89.089 58.5118 89.6251C58.8494 90.1613 59.0182 90.8762 59.0182 91.7698C59.0182 92.4847 58.8494 93.1996 58.5118 93.9145C58.1742 94.4507 57.8366 94.9869 57.1613 95.3443C56.6549 95.7017 55.9796 95.8805 55.3044 95.8805C54.6291 95.8805 53.9538 95.7017 53.4474 95.3443C52.941 94.9869 52.4345 94.4507 52.2657 93.9145C52.0969 93.1996 51.9281 92.4847 51.9281 91.7698ZM52.941 91.7698C52.941 92.6634 53.1098 93.3783 53.6162 93.9145C54.1227 94.4507 54.6291 94.8081 55.4732 94.8081C56.1484 94.8081 56.8237 94.4507 57.3301 93.9145C57.8366 93.3783 58.0054 92.6634 58.0054 91.5911C58.0054 90.8762 57.8366 90.34 57.6677 89.9826C57.4989 89.4464 57.1613 89.089 56.8237 88.9103C56.486 88.7315 55.9796 88.5528 55.4732 88.5528C54.7979 88.5528 54.1227 88.7315 53.6162 89.2677C53.2786 89.8039 52.941 90.6975 52.941 91.7698ZM40.7864 95.523V87.8379H42.3057L43.9938 93.3783C44.1627 93.9145 44.3315 94.272 44.3315 94.4507C44.3315 94.0932 44.5003 93.7358 44.6691 93.1996L46.3572 87.8379H47.7077V95.523H46.6949V89.089L44.5003 95.523H43.6562L41.4616 88.9103V95.523H40.7864ZM32.5145 91.7698C32.5145 90.5188 32.8521 89.4464 33.5274 88.7315C34.2027 88.0166 35.0467 87.6592 36.0596 87.6592C36.7349 87.6592 37.4101 87.8379 37.9166 88.1954C38.423 88.5528 38.9294 89.089 39.0982 89.6251C39.4359 90.1613 39.6047 90.8762 39.6047 91.7698C39.6047 92.4847 39.4359 93.1996 39.0982 93.9145C38.7606 94.4507 38.423 94.9869 37.7477 95.3443C37.2413 95.7017 36.566 95.8805 35.8908 95.8805C35.2155 95.8805 34.5403 95.7017 34.0338 95.3443C33.5274 94.9869 33.021 94.4507 32.8521 93.9145C32.6833 93.1996 32.5145 92.4847 32.5145 91.7698ZM33.5274 91.7698C33.5274 92.6634 33.6962 93.3783 34.2027 93.9145C34.7091 94.4507 35.2155 94.8081 36.0596 94.8081C36.7349 94.8081 37.4101 94.4507 37.9166 93.9145C38.423 93.3783 38.5918 92.6634 38.5918 91.5911C38.5918 90.8762 38.423 90.34 38.2542 89.9826C38.0854 89.4464 37.7477 89.089 37.4101 88.9103C37.0725 88.7315 36.566 88.5528 36.0596 88.5528C35.3843 88.5528 34.7091 88.7315 34.2027 89.2677C33.865 89.8039 33.5274 90.6975 33.5274 91.7698ZM25.4243 95.523V87.8379H27.9566C28.463 87.8379 28.9694 87.8379 29.3071 88.0166C29.6447 88.1954 30.1511 88.3741 30.3199 88.5528C30.6576 88.9103 30.9952 89.2677 31.164 89.8039C31.3328 90.34 31.5016 90.8762 31.5016 91.5911C31.5016 92.1273 31.5016 92.6634 31.3328 93.1996C31.164 93.7358 30.9952 94.0932 30.8264 94.272C30.6576 94.6294 30.3199 94.8081 30.1511 94.9869C29.9823 95.1656 29.6447 95.3443 29.3071 95.3443C28.9694 95.3443 28.6318 95.523 28.1254 95.523H25.4243ZM26.4372 94.6294H27.9566C28.463 94.6294 28.8006 94.6294 29.1382 94.4507C29.4759 94.272 29.6447 94.272 29.8135 94.0932C29.9823 93.9145 30.1511 93.5571 30.3199 93.0209C30.4888 92.6634 30.4888 92.1273 30.4888 91.5911C30.4888 90.6975 30.3199 90.1613 30.1511 89.8039C29.9823 89.4464 29.6447 89.089 29.3071 88.9103C28.9694 88.7315 28.6318 88.7315 28.1254 88.7315H26.606V94.6294H26.4372ZM20.8664 92.4847V91.5911H23.905V94.4507C23.3986 94.8081 22.8921 95.1656 22.3857 95.3443C21.8793 95.523 21.3728 95.7017 20.8664 95.7017C20.1911 95.7017 19.5159 95.523 18.8406 95.1656C18.3342 94.8081 17.8277 94.4507 17.4901 93.7358C17.1525 93.1996 16.9837 92.4847 16.9837 91.5911C16.9837 90.8762 17.1525 90.1613 17.4901 89.4464C17.8277 88.7315 18.1654 88.3741 18.8406 88.0166C19.3471 87.6592 20.0223 87.4805 20.6976 87.4805C21.204 87.4805 21.7105 87.6592 22.2169 87.8379C22.7233 88.0166 23.061 88.1954 23.2298 88.5528C23.3986 88.9103 23.7362 89.2677 23.7362 89.8039L22.8921 89.9826C22.7233 89.6251 22.7233 89.2677 22.5545 89.089C22.3857 88.9103 22.2169 88.7315 21.8793 88.5528C21.5416 88.3741 21.204 88.3741 20.8664 88.3741C20.3599 88.3741 20.0223 88.3741 19.6847 88.5528C19.3471 88.7315 19.1782 88.9103 18.8406 89.089C18.6718 89.2677 18.503 89.6252 18.3342 89.8039C18.1654 90.34 17.9966 90.8762 17.9966 91.4124C17.9966 92.1273 18.1654 92.6634 18.3342 93.1996C18.503 93.7358 18.8406 94.0932 19.3471 94.272C19.8535 94.4507 20.1911 94.6294 20.6976 94.6294C21.0352 94.6294 21.5416 94.6294 21.8793 94.4507C22.2169 94.272 22.5545 94.0932 22.7233 93.9145V92.4847H20.8664ZM10.0623 95.523V87.8379H11.0752L14.9579 93.9145V87.8379H15.9708V95.523H14.9579L11.0752 89.4464V95.523H10.0623ZM7.3613 87.8379H8.37418V95.523H7.3613V87.8379Z" fill="white"/>
<path fill-rule="evenodd" clip-rule="evenodd" d="M52.5199 37.082C52.6937 37.4187 53.0413 38.092 53.0413 38.597C53.0413 38.597 54.0841 36.9137 56.1696 38.2603C56.1696 38.2603 54.4317 38.092 53.9103 38.9336C53.9103 38.9336 56.691 38.2603 57.2124 40.7852C57.2124 40.7852 55.9958 39.4386 54.7792 39.6069C54.7792 39.6069 57.3861 40.4485 56.691 43.1417C56.691 43.1417 56.5172 40.7852 54.6055 40.4485C54.6055 40.4485 56.3434 41.7951 55.6482 44.4883C55.6482 44.4883 55.6482 42.4684 54.4317 41.6268C54.4317 41.6268 55.3006 43.6467 53.9103 45.4983C53.9103 45.4983 54.6055 43.1417 53.3889 42.3001C53.3889 42.3001 52.8675 41.9634 52.8675 42.8051C52.8675 42.8051 52.6937 47.6865 53.0413 50.2114C53.0413 50.2114 58.0813 46.0032 62.5999 48.8648C62.5999 48.8648 58.2551 46.8449 53.2151 51.3896L56.5172 54.2512C56.691 54.0828 56.8648 53.9145 57.2124 53.9145C57.7337 53.9145 58.0813 54.2512 58.0813 54.7561C58.0813 55.7661 56.5172 55.7661 55.9958 55.0928L52.5199 51.8946L49.0441 55.0928C48.5227 55.7661 46.9586 55.7661 46.9586 54.7561C46.9586 54.2512 47.3061 53.9145 47.8275 53.9145C48.1751 53.9145 48.3489 54.0828 48.5227 54.2512L51.8248 51.3896C46.7848 46.8449 42.4399 48.8648 42.4399 48.8648C46.7848 46.0032 51.9986 50.2114 51.9986 50.2114C52.1724 47.8548 52.1724 42.8051 52.1724 42.8051C52.1724 41.9634 51.651 42.3001 51.651 42.3001C50.4344 43.1417 51.1296 45.4983 51.1296 45.4983C49.7393 43.6467 50.6082 41.6268 50.6082 41.6268C49.3917 42.6367 49.3917 44.4883 49.3917 44.4883C48.6965 41.7951 50.4344 40.4485 50.4344 40.4485C48.6965 40.7852 48.3489 43.1417 48.3489 43.1417C47.6537 40.4485 50.2606 39.6069 50.2606 39.6069C49.0441 39.4386 47.8275 40.7852 47.8275 40.7852C48.3489 38.2603 51.1296 38.9336 51.1296 38.9336C50.782 38.092 48.8703 38.2603 48.8703 38.2603C50.9558 36.9137 51.9986 38.597 51.9986 38.597C51.9986 38.092 52.3461 37.4187 52.5199 37.082Z" fill="white"/>
<path fill-rule="evenodd" clip-rule="evenodd" d="M7.83194 84.9254H8.83994V83.8722H7.83194V84.9254ZM5.64794 74.2185H4.63994V75.2716H5.64794V74.2185ZM9.51194 84.9254H10.5199V83.8722H9.51194V84.9254ZM4.13594 74.2185H3.12794V75.2716H4.13594V74.2185ZM16.0639 77.2024C15.8959 76.8513 15.5599 76.6758 15.2239 76.5003C14.8879 76.3248 14.5519 76.3248 14.2159 76.3248H13.5439V77.2024H14.3839C14.5519 77.2024 14.7199 77.2024 15.0559 77.3779C15.2239 77.5534 15.3919 77.5534 15.5599 77.7289C15.7279 77.9045 15.7279 78.08 15.8959 78.2555V78.9576V81.766H11.6959V82.6436H16.9039V78.9576C16.9039 78.6066 16.9039 78.2555 16.7359 77.9045C16.3999 77.7289 16.2319 77.3779 16.0639 77.2024ZM51.5119 82.8191H52.3519V74.2185H51.5119V82.8191ZM47.8159 81.9415H46.3039C45.7999 81.9415 45.2959 81.9415 44.9599 81.766C44.6239 81.5904 44.4559 81.4149 44.2879 81.0639C44.2879 80.8883 44.4559 80.5373 44.4559 80.1863V77.2024H43.6159V80.3618C43.6159 80.8883 43.4479 81.4149 43.1119 81.766C42.7759 82.117 42.4399 82.2925 41.7679 82.2925C41.4319 82.2925 41.2639 82.2925 41.0959 82.117C40.9279 82.117 40.7599 81.9415 40.5919 81.766C40.4239 81.5904 40.2559 81.4149 40.2559 81.2394C40.0879 81.0639 40.0879 80.8883 40.0879 80.5373V77.2024H39.2479V80.5373C39.2479 80.8883 39.2479 81.0639 39.0799 81.2394C39.0799 81.4149 38.9119 81.5904 38.7439 81.766C38.5759 81.9415 38.4079 81.9415 38.2399 82.117C38.0719 82.117 37.9039 82.2925 37.7359 82.2925H35.8879V77.3779H35.0479V82.2925H30.3439L31.8559 78.2555C31.6879 78.08 31.3519 77.9045 31.0159 77.5534C30.6799 77.3779 30.5119 77.2024 30.1759 77.0268C29.8399 76.8513 29.5039 76.6758 29.3359 76.6758C28.9999 76.6758 28.6639 76.5003 28.4959 76.5003C28.1599 76.5003 27.8239 76.5003 27.6559 76.6758C27.4879 76.8513 26.9839 76.8513 26.8159 77.0268C26.4799 77.2024 26.3119 77.3779 25.9759 77.5534C25.6399 77.7289 25.4719 77.9045 25.1359 78.2555L26.8159 82.2925H23.6239V76.8513H22.1119C21.6079 76.8513 21.1039 76.8513 20.5999 77.0268C20.0959 77.2024 19.7599 77.3779 19.4239 77.7289C19.0879 78.08 18.7519 78.431 18.5839 78.7821C18.4159 79.1331 18.2479 79.6597 18.2479 80.0107C18.2479 80.5373 18.4159 81.0639 18.5839 81.4149C18.7519 81.766 19.0879 82.117 19.4239 82.468C19.7599 82.6436 20.0959 82.9946 20.5999 82.9946C21.1039 83.1701 21.6079 83.1701 22.1119 83.1701H22.6159V83.3457C22.6159 83.8722 22.4479 84.2233 22.2799 84.3988C21.9439 84.5743 21.6079 84.7498 21.1039 84.7498H20.2639C20.0959 84.7498 19.7599 84.5743 19.4239 84.3988L19.0879 85.2764C19.4239 85.4519 19.7599 85.4519 19.9279 85.6274C20.2639 85.6274 20.4319 85.803 20.7679 85.803C21.6079 85.803 22.2799 85.6274 22.7839 85.1009C23.1199 84.7498 23.4559 84.0477 23.4559 83.3457V83.1701H37.7359C38.2399 83.1701 38.5759 82.9946 38.9119 82.8191C39.2479 82.6436 39.5839 82.2925 39.7519 81.9415C39.9199 82.2925 40.2559 82.6436 40.5919 82.8191C40.9279 82.9946 41.4319 83.1701 41.9359 83.1701C42.4399 83.1701 42.9439 82.9946 43.2799 82.8191C43.6159 82.6436 43.9519 82.2925 44.1199 81.9415C44.1199 82.117 44.2879 82.2925 44.4559 82.2925C44.6239 82.468 44.6239 82.468 44.7919 82.6436C44.9599 82.8191 45.1279 82.8191 45.4639 82.8191H46.1359H48.8239V74.2185H47.9839V81.9415H47.8159ZM69.9919 84.9254H70.9999V83.8722H69.9919V84.9254ZM78.8959 81.9415L77.5519 78.2555C77.8879 77.9045 78.2239 77.7289 78.5599 77.5534C78.8959 77.3779 79.3999 77.3779 79.7359 77.3779C80.0719 77.3779 80.576 77.3779 80.9119 77.5534C81.4159 77.7289 81.7519 77.9045 81.9199 78.2555L80.4079 81.9415H78.8959ZM85.4479 81.9415H81.5839L83.2639 77.9045C83.0959 77.7289 82.7599 77.5534 82.4239 77.2024C82.0879 77.0268 81.9199 76.8513 81.5839 76.6758C81.2479 76.5003 81.0799 76.5003 80.7439 76.3248C80.4079 76.3248 80.0719 76.1492 79.9039 76.1492C79.5679 76.1492 79.2319 76.1492 79.0639 76.3248C78.7279 76.3248 78.3919 76.5003 78.2239 76.6758C77.8879 76.8513 77.7199 77.0268 77.3839 77.2024C77.0479 77.3779 76.8799 77.5534 76.5439 77.9045C78.2239 81.766 78.2239 81.9415 78.2239 81.9415H74.8639V76.3248H74.0239V82.9946V83.6967C74.0239 83.8722 74.0239 84.0477 73.8559 84.0477C73.8559 84.2233 73.6879 84.2233 73.5199 84.2233H73.1839H73.0159H72.8479L72.6799 85.1009C73.0159 85.1009 73.1839 85.2764 73.3519 85.2764C73.688 85.2764 74.0239 85.2764 74.1919 85.1009C74.3599 84.9254 74.5279 84.9254 74.6959 84.5743C74.8639 84.3988 74.8639 84.0477 75.0319 83.8722V82.8191V82.6436H86.7919V74.043H85.952V81.9415H85.4479ZM66.632 84.9254H67.6399V83.8722H66.632V84.9254ZM61.0879 81.9415H60.2479C59.9119 81.9415 59.5759 81.9415 59.2399 81.766C58.9039 81.5904 58.7359 81.5904 58.3999 81.2394C58.2319 81.0639 58.0639 80.8883 57.8959 80.5373C57.7279 80.1863 57.7279 79.8352 57.7279 79.6597C57.7279 79.3086 57.7279 78.9576 57.8959 78.7821C58.0639 78.6066 58.2319 78.2555 58.3999 78.08C58.5679 77.9045 58.9039 77.7289 59.2399 77.5534C59.5759 77.3779 59.9119 77.3779 60.0799 77.3779H60.9199V81.9415H61.0879ZM70.8319 76.3248H69.9919V81.9415H66.632V76.3248H65.7919V81.9415H62.0959V76.3248H60.5839C60.0799 76.3248 59.5759 76.5003 59.0719 76.5003C58.5679 76.6758 58.2319 76.8513 57.8959 77.2024C57.5599 77.5534 57.2239 77.9045 57.0559 78.2555C56.8879 78.6065 56.7199 79.1331 56.7199 79.4842C56.7199 80.0107 56.8879 80.5373 57.0559 80.8883C57.2239 81.2394 57.5599 81.5904 57.8959 81.9415C58.2319 82.117 58.5679 82.2925 59.0719 82.468C59.5759 82.6436 59.9119 82.6436 60.5839 82.6436H70.9999V76.3248H70.8319ZM65.1199 84.9254H66.1279V83.8722H65.1199V84.9254ZM61.9279 74.394H61.0879V75.4471H62.0959V74.394H61.9279ZM60.4159 74.394H59.4079V75.4471H60.4159V74.394ZM88.9759 82.8191H89.8159V74.2185H88.9759V82.8191ZM129.8 81.9415C129.632 82.2925 129.464 82.468 129.296 82.8191C129.128 82.9946 128.792 83.1701 128.624 83.3457C128.288 83.5212 127.952 83.5212 127.616 83.5212C127.28 83.5212 126.944 83.5212 126.608 83.3457C126.272 83.1701 126.104 82.9946 125.936 82.8191C125.768 82.6436 125.6 82.2925 125.432 81.9415C125.264 81.5904 125.264 81.2394 125.264 81.0639C125.264 80.7128 125.264 80.3618 125.432 80.0107C125.6 79.6597 125.768 79.4842 125.936 79.1331C126.104 78.9576 126.44 78.7821 126.608 78.6066C126.944 78.431 127.28 78.431 127.616 78.431C127.952 78.431 128.288 78.431 128.624 78.6066C128.96 78.7821 129.128 78.9576 129.464 79.1331C129.632 79.3086 129.8 79.6597 129.968 80.0107C130.136 80.3618 130.136 80.7128 130.136 81.0639C129.968 81.4149 129.968 81.766 129.8 81.9415ZM120.896 81.9415C120.728 82.2925 120.56 82.468 120.392 82.8191C120.224 82.9946 119.888 83.1701 119.552 83.3457C119.216 83.5212 118.88 83.5212 118.544 83.5212C118.208 83.5212 117.872 83.5212 117.536 83.3457C117.2 83.1701 117.032 82.9946 116.864 82.8191C116.696 82.6436 116.528 82.2925 116.36 81.9415C116.192 81.5904 116.192 81.2394 116.192 81.0639C116.192 80.7128 116.192 80.3618 116.36 80.0107C116.528 79.6597 116.696 79.4842 116.864 79.1331C117.032 78.9576 117.368 78.7821 117.536 78.6066C117.872 78.431 118.208 78.431 118.544 78.431C118.88 78.431 119.216 78.431 119.552 78.6066C119.888 78.7821 120.056 78.9576 120.392 79.1331C120.56 79.3086 120.728 79.6597 120.896 80.0107C121.064 80.3618 121.064 80.7128 121.064 81.0639C121.064 81.4149 121.064 81.766 120.896 81.9415ZM98.7199 82.468H97.8799C97.5439 82.468 97.2079 82.468 96.8719 82.2925C96.5359 82.117 96.368 82.117 96.0319 81.766C95.8639 81.5904 95.6959 81.4149 95.5279 81.0639C95.3599 80.7128 95.3599 80.3618 95.3599 80.1863C95.3599 79.8352 95.3599 79.4842 95.5279 79.3086C95.6959 79.1331 95.8639 78.7821 96.0319 78.6066C96.2 78.431 96.5359 78.2555 96.8719 78.08C97.2079 77.9045 97.5439 77.9045 97.7119 77.9045H98.5519V82.468H98.7199ZM133.832 82.468H130.64C130.808 81.9415 130.976 81.5904 130.976 81.0639C130.976 80.5373 130.808 80.1863 130.64 79.6597C130.472 79.3086 130.304 78.7821 129.968 78.6066C129.632 78.2555 129.296 78.08 128.96 77.9045C128.624 77.7289 128.12 77.7289 127.616 77.7289C127.112 77.7289 126.776 77.7289 126.272 77.9045C125.936 78.08 125.6 78.2555 125.264 78.6066C124.928 78.9576 124.76 79.3086 124.592 79.6597C124.424 80.0107 124.256 80.5373 124.256 81.0639V81.766C124.256 81.9415 124.424 82.117 124.424 82.468H121.568C121.736 81.9415 121.904 81.5904 121.904 81.0639C121.904 80.5373 121.736 80.1863 121.568 79.6597C121.4 79.3086 121.232 78.7821 120.896 78.6066C120.56 78.2555 120.224 78.08 119.888 77.9045C119.552 77.7289 119.048 77.7289 118.544 77.7289C118.04 77.7289 117.704 77.7289 117.2 77.9045C116.864 78.08 116.528 78.2555 116.192 78.6066C115.856 78.9576 115.688 79.3086 115.52 79.6597C115.352 80.0107 115.352 80.5373 115.352 81.0639V81.766C115.352 81.9415 115.52 82.117 115.52 82.468H112.664V74.9206H111.824V82.468H108.968V81.0639C108.968 80.7128 108.968 80.3618 108.8 80.0107C108.632 79.6597 108.632 79.3086 108.296 79.1331C108.128 78.9576 107.792 78.6065 107.456 78.431C107.12 78.2555 106.784 78.2555 106.28 78.2555H102.248L103.928 74.7451H102.92L101.24 78.08C101.24 78.2555 101.24 78.431 101.408 78.6066C101.408 78.7821 101.576 78.9576 101.744 78.9576H106.448C106.784 78.9576 106.952 78.9576 107.12 79.1331C107.288 79.1331 107.456 79.3086 107.624 79.4842C107.792 79.6597 107.792 79.8352 107.96 80.0107V80.7128V82.117H99.5599V76.5003H98.0479C97.5439 76.5003 97.0399 76.6758 96.5359 76.6758C96.0319 76.8513 95.6959 77.0268 95.3599 77.3779C95.0239 77.7289 94.8559 78.08 94.6879 78.431C94.5199 78.7821 94.3519 79.3086 94.3519 79.6597C94.3519 80.1863 94.5199 80.7128 94.6879 81.0639C94.8559 81.4149 95.1919 81.766 95.5279 82.117C95.8639 82.2925 96.1999 82.468 96.7039 82.6436C97.2079 82.8191 97.7119 82.8191 98.216 82.8191H116.36C116.696 83.1701 117.032 83.5212 117.368 83.6967C117.872 83.8722 118.208 84.0477 118.712 84.0477C119.216 84.0477 119.72 84.0477 120.056 83.6967C120.56 83.5212 120.896 83.3457 121.064 82.8191H125.096C125.432 83.1701 125.768 83.5212 126.104 83.6967C126.608 83.8722 126.944 84.0477 127.448 84.0477C127.952 84.0477 128.456 84.0477 128.792 83.6967C129.296 83.5212 129.632 83.3457 129.8 82.8191H134.504V74.2185H133.664V82.468H133.832ZM137.36 83.3457H138.2V74.7451H137.36V83.3457ZM98.0479 74.9206H97.0399V75.9737H98.0479V74.9206ZM99.5599 74.9206H98.5519V75.9737H99.5599V74.9206ZM10.1839 76.3248H9.34394V81.766H5.64794V76.3248H4.13594C3.63194 76.3248 3.12794 76.3248 2.62394 76.5003C2.11994 76.6758 1.78394 76.8513 1.44794 77.2024C1.11194 77.5534 0.943941 77.9045 0.775941 78.2555C0.607941 78.6065 0.439941 79.1331 0.439941 79.4842C0.439941 80.0107 0.607941 80.5373 0.775941 80.8883C0.943941 81.2394 1.27994 81.5904 1.61594 81.9415C1.95194 82.117 2.28794 82.468 2.79194 82.468C3.29594 82.6436 3.79994 82.6436 4.30394 82.6436H10.3519V76.3248H10.1839ZM4.80794 81.9415H3.96794C3.63194 81.9415 3.29594 81.9415 2.95994 81.766C2.62394 81.5904 2.45594 81.5904 2.11994 81.2394C1.95194 81.0639 1.78394 80.8883 1.61594 80.5373C1.44794 80.1863 1.44794 80.0107 1.44794 79.6597C1.44794 79.3086 1.44794 78.9576 1.61594 78.7821C1.78394 78.431 1.95194 78.2555 2.11994 78.08C2.28794 77.9045 2.62394 77.7289 2.95994 77.5534C3.29594 77.3779 3.63194 77.3779 3.79994 77.3779H4.63994V81.9415H4.80794ZM22.4479 81.9415H21.6079C21.2719 81.9415 20.9359 81.9415 20.5999 81.766C20.2639 81.5904 20.0959 81.5904 19.7599 81.2394C19.5919 81.0639 19.2559 80.8883 19.2559 80.5373C19.0879 80.1863 19.0879 80.0107 19.0879 79.6597C19.0879 79.3086 19.0879 78.9576 19.2559 78.7821C19.4239 78.431 19.5919 78.2555 19.7599 78.08C19.9279 77.9045 20.2639 77.7289 20.5999 77.5534C20.9359 77.3779 21.2719 77.3779 21.6079 77.3779H22.4479V81.9415ZM27.4879 81.9415L25.9759 78.2555C26.3119 77.9045 26.6479 77.7289 26.9839 77.5534C27.3199 77.3779 27.6559 77.3779 28.1599 77.3779C28.4959 77.3779 28.9999 77.3779 29.3359 77.5534C29.6719 77.7289 30.0079 77.9045 30.3439 78.2555L28.9999 81.9415H27.4879Z" fill="white"/>
<path fill-rule="evenodd" clip-rule="evenodd" d="M112.832 22.0846H114.344V23.6411H112.832V22.0846ZM116.024 22.0846H117.536V23.6411H116.024V22.0846ZM84.776 3.57992H83.264V2.02345H84.776V3.57992ZM122.744 14.994C123.416 15.5129 124.088 15.6858 124.76 16.0317C125.6 16.2046 126.44 16.3776 127.28 16.3776H127.616L128.12 15.167V16.7234C128.12 17.5882 127.784 18.107 127.448 18.6258C126.944 18.9717 126.272 19.1446 125.432 19.1446C124.928 19.1446 124.592 19.1446 124.088 18.9717C123.752 18.7987 123.248 18.7987 122.744 18.4529L122.24 20.0093C122.912 20.1823 123.416 20.3552 123.92 20.5282C124.424 20.7011 124.928 20.7011 125.264 20.7011C126.776 20.7011 127.952 20.3552 128.624 19.6634C129.296 18.9717 129.632 17.934 129.632 16.7234V5.48227H127.112C126.104 5.48227 125.264 5.65521 124.424 5.82815C123.584 6.17404 122.912 6.51992 122.408 7.03874C121.736 7.55756 121.4 8.07639 121.064 8.76815C120.728 9.45992 120.56 10.1517 120.56 11.0164C120.56 11.8811 120.728 12.7458 121.064 13.4376C121.568 13.9564 122.072 14.4752 122.744 14.994ZM122.744 9.11403C122.912 8.59521 123.248 8.24933 123.752 7.90345C124.088 7.55756 124.592 7.21168 125.096 7.03874C125.6 6.8658 126.104 6.69286 126.608 6.69286H129.128L128.288 7.21168V14.4752H126.608C125.936 14.4752 125.432 14.4752 124.928 14.3023C124.424 14.1293 123.92 13.7834 123.584 13.6105C123.248 13.2646 122.912 12.9187 122.744 12.3999C122.576 11.8811 122.408 11.3623 122.408 10.8434C122.24 10.1517 122.408 9.63286 122.744 9.11403ZM87.968 3.57992H86.456V2.02345H87.968V3.57992ZM133.832 20.7011C133.328 20.7011 132.992 20.7011 132.488 20.5282L132.824 18.9717C132.992 18.9717 133.16 18.9717 133.328 19.1446H133.664C134 19.1446 134.168 19.1446 134.336 18.9717C134.504 18.9717 134.672 18.7987 134.84 18.6258C135.008 18.4529 135.008 18.107 135.008 17.7611V16.5505V5.30933H136.52V16.5505C136.52 17.2423 136.52 17.7611 136.352 18.2799C136.184 18.7987 136.016 19.1446 135.848 19.6634C135.68 20.0093 135.344 20.3552 135.008 20.5282C134.84 20.5282 134.336 20.7011 133.832 20.7011ZM83.6 20.5282H86.792V19.3176C86.792 19.3176 86.792 19.4905 86.96 19.4905C87.128 19.8364 87.464 20.1823 87.968 20.3552C88.304 20.5282 88.808 20.7011 89.312 20.7011H118.04V5.48227H116.528V19.1446H114.848H89.312C88.976 19.1446 88.808 19.1446 88.472 18.9717C88.304 18.7987 88.136 18.7987 87.968 18.4529C87.8 18.2799 87.8 17.934 87.632 17.5882V16.3776V5.13639H83.432C79.064 5.13639 76.04 8.59521 76.04 12.7458C76.376 16.8964 79.232 20.5282 83.6 20.5282ZM78.056 12.7458C78.056 9.45992 80.408 6.69286 83.6 6.69286H87.296L86.288 7.21168V16.3776C86.288 17.0693 86.288 17.5882 86.456 18.107C86.456 18.4529 86.624 18.6258 86.624 18.9717H83.6C80.408 18.7987 78.056 16.2046 78.056 12.7458ZM127.952 0.121094H129.296V1.33168H128.12C127.784 1.33168 127.616 1.50462 127.616 1.85051V2.36933H129.632V3.57992H126.272V1.85051C126.272 0.9858 127.112 0.121094 127.952 0.121094Z" fill="white"/>
<path fill-rule="evenodd" clip-rule="evenodd" d="M67.6562 5.49246H69.3199V20.114H67.9889L57.6736 6.98785L58.5055 9.14785V20.114H56.8417V5.49246H58.3391L68.3217 18.1202L67.6562 16.2925V5.49246ZM6.76226 20.114L0.439941 5.32631H2.27009L3.10197 7.48631L7.42777 17.7878L7.9269 18.7848L7.76052 17.1232L12.7518 5.16016H14.582L8.25965 19.9478H6.76226V20.114ZM34.7136 5.49246H36.3773V20.114H34.7136V5.49246ZM52.5159 12.8032C52.5159 16.1263 50.1866 18.7848 46.8591 18.7848C43.5315 18.7848 41.0359 16.1263 41.0359 12.8032C41.0359 9.48016 43.3652 6.82169 46.6927 6.82169C50.0202 6.65554 52.5159 9.48016 52.5159 12.8032ZM46.6927 5.16016C42.2005 5.16016 39.2057 8.64939 39.2057 12.6371C39.2057 16.6248 42.2005 20.114 46.6927 20.114C51.1849 20.114 54.1797 16.6248 54.1797 12.6371C54.1797 8.64939 51.1849 5.16016 46.6927 5.16016ZM32.0515 16.1263C32.0515 18.6186 29.8886 20.2802 27.0602 20.2802C24.731 20.2802 22.9008 19.4494 21.0707 17.954L22.0689 16.7909C23.5663 18.1202 25.0637 18.7848 27.0602 18.7848C29.0568 18.7848 30.3878 17.7878 30.3878 16.2925C30.3878 14.9632 29.7223 14.1325 26.5611 13.4678C23.2336 12.8032 21.7362 11.6402 21.7362 9.314C21.7362 6.98785 23.7327 5.32631 26.5611 5.32631C28.724 5.32631 30.2214 5.99093 31.7188 7.154L30.7205 8.48323C29.3895 7.32016 28.0585 6.82169 26.5611 6.82169C24.731 6.82169 23.3999 7.81862 23.3999 9.14785C23.3999 10.4771 24.2318 11.3078 27.393 11.9725C30.5541 12.6371 32.0515 13.8002 32.0515 16.1263ZM18.575 20.114H16.9112V5.49246H18.575V20.114Z" fill="white"/>
</g>
<defs>
<clipPath id="clip0_3406_11006">
<rect width="141.12" height="95.76" fill="white" transform="translate(0.439941 0.121094)"/>
</clipPath>
</defs>
</svg>
